<?xml version="1.0" encoding="utf-8"?>
<!-- Generator: Adobe Illustrator 21.0.1, SVG Export Plug-In . SVG Version: 6.00 Build 0)  -->
<svg version="1.1" id="Layer_1" xmlns="http://www.w3.org/2000/svg" xmlns:xlink="http://www.w3.org/1999/xlink" x="0px" y="0px"
	 viewBox="0 0 2048 503" style="enable-background:new 0 0 2048 503;" xml:space="preserve">
<style type="text/css">
	.st0{fill:#F47F25;}
	.st1{fill:url(#SVGID_1_);}
</style>
<path class="st0" d="M185.9,23c-18.2,3.1-31.7,22.1-28.7,40.5c1.3,8.1,3.6,13,9.1,19.1c16.7,18.5,44.8,14.4,56.2-8.1
	c10.5-20.8-1.6-46.2-24.3-51c-3.7-0.8-6.9-1.4-7.2-1.4C190.7,22.2,188.4,22.6,185.9,23z M275,23.6c-6,2.1-12.9,6.6-17,11.2
	c-18.2,20.4-7,53.7,19.8,58.8c7.1,1.3,15,0.1,22.1-3.5c4.5-2.4,10.1-6.9,10.1-8.2c0-0.6,1-2.1,2.3-3.5c3.7-4,6.1-12,6.2-20.4
	c0-6.6-0.5-8.5-3.4-14.5c-3.9-7.9-9.9-14.2-16.8-17.6c-3.7-1.8-6.8-2.4-13.3-2.6C280.3,23.2,275.8,23.3,275,23.6L275,23.6z"/>
<path d="M103.3,111.9c-16.6,5.7-28.3,18.4-32.8,35.6c-1.3,5.1-1.5,18.9-1.5,104c0,66.4,0.4,100,1.1,104c3.2,17.2,17,32.6,34.8,38.7
	l6.6,2.3h207l0.3-24.8L319,347H119v-70h200v-49H119v-69l99.8-0.2l99.7-0.3l0.3-24.8L319,109H215.3l-103.8,0.1L103.3,111.9z
	 M334,110.2c0,0.7,21.4,65.5,47.6,144.1L429.2,397l29.1-0.2l29.1-0.3l47.3-142c26-78.1,47.6-142.8,47.9-143.8
	c0.5-1.6-1.1-1.7-25-1.7c-18.3,0-25.6,0.3-25.6,1.1c0,1.1-16.1,50.6-43.5,133.9c-5.7,17.3-14.8,44.9-20.2,61.2
	c-5.3,16.4-10,29.4-10.4,29s-4.1-11.1-8.2-23.7c-4.2-12.7-19.1-57.9-33.1-100.5s-27.2-82.8-29.3-89.3l-3.7-11.7h-24.8
	C339.6,109,334,109.3,334,110.2L334,110.2z M640.3,110.5c-8.8,2.4-15.5,6.4-22.9,13.9c-8,8-11.7,14.7-13.9,25.1
	c-2.1,9.9-2.2,196.6-0.1,206.2c1.9,9,6,16.6,12.8,23.8c7,7.5,12.9,11.5,21.8,14.7l6.5,2.3h207l6.5-2.3c3.6-1.3,8.6-3.7,11.2-5.4
	c6.1-3.9,15.2-13.7,18.3-19.7c5.6-11.2,5.5-8.3,5.5-116.3c0-108.4,0.2-104.4-5.8-116.6c-3.4-7-14.3-18.2-21.1-21.6
	c-11.3-5.8-7.6-5.6-118.6-5.5C663,109.1,644.6,109.4,640.3,110.5L640.3,110.5z M843,253v94H652V159h191V253z"/>
<path class="st0" d="M919.3,109.6c-0.8,0.4-1.2,7-1.3,24.5l-0.1,23.9l50.1,0.2l50,0.3V275c0,64.1,0.3,117.5,0.6,118.7l0.6,2.3h47.8
	l0.2-118.8l0.3-118.7l49.8-0.3l49.7-0.2v-48.9h-123.2C976,109.1,920,109.4,919.3,109.6L919.3,109.6z M1230.9,110.3
	c-18.7,3.4-34.7,18.4-39.8,37.4c-1.4,5-1.5,203.8-0.2,209.3c3.4,14,14.3,27,28.6,34.1l8.8,4.4l104.8,0.3l104.7,0.2l0.4-2.5
	c0.8-4,1-40.9,0.2-43.9l-0.6-2.6l-99.4,0.2l-99.4,0.3V277h198.8l0.7-4.7c0.4-2.5,0.5-13.3,0.4-24c-0.3-18.5-0.4-19.4-2.4-19.9
	c-1.1-0.2-46-0.3-99.8-0.2l-97.7,0.3V158h198.8l0.6-2.3c1-3.6,0.6-43.1-0.4-44.7c-0.8-1.3-13.2-1.5-100.7-1.7
	C1264.1,109.2,1235.8,109.5,1230.9,110.3z M1504,110.5c-3.6,0.6-9.1,2.4-12.3,3.9c-7.6,3.5-18.5,13.9-22.5,21.4
	c-6.4,12-6.2,7.6-6.2,117.3c0,96.3,0.1,99.9,2,106c4.6,15,16.7,27.9,32.1,34.2l5.4,2.2l104.8,0.3l104.7,0.3V347h-200V158h200v-49
	l-100.7,0.1C1536.1,109.2,1508.8,109.5,1504,110.5z M1726.8,109.7c-1.7,0.4-1.8,8.1-1.8,143.4V396h49V277h150v119h50V109.2
	l-21.5-0.1c-11.8-0.1-23,0.1-25,0.5l-3.5,0.6V228h-150v-58.9c0-49.4-0.2-59-1.4-59.4C1770.9,109,1729.2,109,1726.8,109.7
	L1726.8,109.7z"/>
<linearGradient id="SVGID_1_" gradientUnits="userSpaceOnUse" x1="63.9816" y1="1655.3818" x2="133.5251" y2="1655.3818" gradientTransform="matrix(1 0 0 1 0 -1596)">
	<stop  offset="0" style="stop-color:#FFFFFF"/>
	<stop  offset="6.520000e-02" style="stop-color:#FEF2E9"/>
	<stop  offset="0.2006" style="stop-color:#FBD2B2"/>
	<stop  offset="0.393" style="stop-color:#F79E59"/>
	<stop  offset="0.5" style="stop-color:#F47F25"/>
</linearGradient>
<path class="st1" d="M93.1,24.2c-18.2,3.1-31.7,22.1-28.7,40.5c1.3,8.1,3.6,13,9.1,19.1c16.7,18.5,44.8,14.4,56.2-8.1
	c10.5-20.8-1.6-46.2-24.3-51c-3.7-0.8-6.9-1.4-7.2-1.4C97.9,23.4,95.6,23.8,93.1,24.2z"/>
</svg>
