<svg id="Layer_1" xmlns="http://www.w3.org/2000/svg" viewBox="0 0 2048 503"><style>.st0{fill:#F47F25;} .st1{fill:url(#SVGID_1_);}</style><path class="st0" d="M185.9 23c-18.2 3.1-31.7 22.1-28.7 40.5 1.3 8.1 3.6 13 9.1 19.1 16.7 18.5 44.8 14.4 56.2-8.1 10.5-20.8-1.6-46.2-24.3-51-3.7-.8-6.9-1.4-7.2-1.4-.3.1-2.6.5-5.1.9zM275 23.6c-6 2.1-12.9 6.6-17 11.2-18.2 20.4-7 53.7 19.8 58.8 7.1 1.3 15 .1 22.1-3.5 4.5-2.4 10.1-6.9 10.1-8.2 0-.6 1-2.1 2.3-3.5 3.7-4 6.1-12 6.2-20.4 0-6.6-.5-8.5-3.4-14.5-3.9-7.9-9.9-14.2-16.8-17.6-3.7-1.8-6.8-2.4-13.3-2.6-4.7-.1-9.2 0-10 .3z"/><path d="M103.3 111.9c-16.6 5.7-28.3 18.4-32.8 35.6-1.3 5.1-1.5 18.9-1.5 104 0 66.4.4 100 1.1 104 3.2 17.2 17 32.6 34.8 38.7l6.6 2.3h207l.3-24.8.2-24.7H119v-70h200v-49H119v-69l99.8-.2 99.7-.3.3-24.8.2-24.7H215.3l-103.8.1-8.2 2.8zM334 110.2c0 .7 21.4 65.5 47.6 144.1L429.2 397l29.1-.2 29.1-.3 47.3-142c26-78.1 47.6-142.8 47.9-143.8.5-1.6-1.1-1.7-25-1.7-18.3 0-25.6.3-25.6 1.1 0 1.1-16.1 50.6-43.5 133.9-5.7 17.3-14.8 44.9-20.2 61.2-5.3 16.4-10 29.4-10.4 29s-4.1-11.1-8.2-23.7c-4.2-12.7-19.1-57.9-33.1-100.5s-27.2-82.8-29.3-89.3l-3.7-11.7h-24.8c-19.2 0-24.8.3-24.8 1.2zM640.3 110.5c-8.8 2.4-15.5 6.4-22.9 13.9-8 8-11.7 14.7-13.9 25.1-2.1 9.9-2.2 196.6-.1 206.2 1.9 9 6 16.6 12.8 23.8 7 7.5 12.9 11.5 21.8 14.7l6.5 2.3h207l6.5-2.3c3.6-1.3 8.6-3.7 11.2-5.4 6.1-3.9 15.2-13.7 18.3-19.7 5.6-11.2 5.5-8.3 5.5-116.3 0-108.4.2-104.4-5.8-116.6-3.4-7-14.3-18.2-21.1-21.6-11.3-5.8-7.6-5.6-118.6-5.5-84.5 0-102.9.3-107.2 1.4zM843 253v94H652V159h191v94z"/><path class="st0" d="M919.3 109.6c-.8.4-1.2 7-1.3 24.5l-.1 23.9 50.1.2 50 .3V275c0 64.1.3 117.5.6 118.7l.6 2.3h47.8l.2-118.8.3-118.7 49.8-.3 49.7-.2v-48.9h-123.2c-67.8 0-123.8.3-124.5.5zM1230.9 110.3c-18.7 3.4-34.7 18.4-39.8 37.4-1.4 5-1.5 203.8-.2 209.3 3.4 14 14.3 27 28.6 34.1l8.8 4.4 104.8.3 104.7.2.4-2.5c.8-4 1-40.9.2-43.9l-.6-2.6-99.4.2-99.4.3V277h198.8l.7-4.7c.4-2.5.5-13.3.4-24-.3-18.5-.4-19.4-2.4-19.9-1.1-.2-46-.3-99.8-.2l-97.7.3V158h198.8l.6-2.3c1-3.6.6-43.1-.4-44.7-.8-1.3-13.2-1.5-100.7-1.7-73.2-.1-101.5.2-106.4 1zM1504 110.5c-3.6.6-9.1 2.4-12.3 3.9-7.6 3.5-18.5 13.9-22.5 21.4-6.4 12-6.2 7.6-6.2 117.3 0 96.3.1 99.9 2 106 4.6 15 16.7 27.9 32.1 34.2l5.4 2.2 104.8.3 104.7.3V347h-200V158h200v-49l-100.7.1c-75.2.1-102.5.4-107.3 1.4zM1726.8 109.7c-1.7.4-1.8 8.1-1.8 143.4V396h49V277h150v119h50V109.2l-21.5-.1c-11.8-.1-23 .1-25 .5l-3.5.6V228h-150v-58.9c0-49.4-.2-59-1.4-59.4-1.7-.7-43.4-.7-45.8 0z"/><path d="M1004.2 428.9c-.9.6-10.2 42.2-10.2 45.8 0 .2 4.7.3 10.5.3 14.3 0 19.5-2.6 22.5-11.1 1.6-4.4.7-8.3-2.4-11.4l-2.3-2.3 2.9-3c2.2-2.1 3.2-4.2 3.5-7.6.7-5.8-1.3-9.1-6.4-10.5-4.5-1.3-16.3-1.4-18.1-.2zm17.1 7.2c1.5 2.5-.1 8.7-2.7 10.4-3.1 2-12.6 3.2-12.6 1.6 0-.6.6-4.1 1.2-7.7l1.3-6.5 5.9.3c4.1.2 6.2.8 6.9 1.9zM1019 456c3 3 2.5 6.7-1.4 10.6-3.2 3.2-3.9 3.4-9.8 3.4h-6.5l1.6-8 1.5-8h6.3c5 0 6.7.4 8.3 2zM1044.1 428.9c-1 .6-3 8.6-5.8 22.3-2.3 11.7-4.3 21.9-4.3 22.5 0 1.6 25.9 1.9 26.2.3.5-3.4.2-3.5-9.3-4l-9.6-.5 1.6-8 1.6-8 8.5-.5c7.9-.5 8.5-.7 8.8-2.8s.1-2.2-7.7-2.2c-4.5 0-8.1-.3-8.1-.7 0-.3.5-3.5 1.1-7l1.1-6.3h9.4c8.3 0 9.4-.2 10.4-2 .6-1.1.8-2.5.5-3-.8-1.3-22.5-1.3-24.4-.1zM1079.3 428.8c-.7.4-3.1 10-5.3 21.2-2.3 11.3-4.4 21.5-4.7 22.8-.5 2.1-.3 2.3 2.8 2l3.4-.3 3.5-18.2c1.9-10.1 3.7-18.3 4-18.3s2.9 6.9 5.9 15.3c7.9 22.7 7.4 21.7 11.6 21.7 2.1 0 3.8-.6 4.1-1.4 1.6-4 9-44.2 8.3-45-.4-.5-1.8-.6-3.1-.3-2.2.6-2.6 1.9-5.8 18.7-1.9 9.9-3.7 17.6-4 17.2-.4-.4-2.3-5.4-4.4-11.2-8.1-23-8.8-24.5-12.1-24.8-1.7-.1-3.5.1-4.2.6zM1126.2 428.8c-1.3.9-10.5 44-9.6 45.4.3.4 6.1.8 12.9.8 12.5 0 13.5-.3 13.5-4.1 0-.5-4.4-.9-9.9-.9h-9.8l1.6-8.3 1.7-8.2 8.4-.5c7.9-.5 8.5-.7 8.8-2.8s.1-2.2-7.9-2.2h-8.1l.7-3.3c.3-1.7.9-4.9 1.2-7l.6-3.7h9.1c9.5 0 11.6-.8 11.6-4.2 0-1.6-1.1-1.8-11.7-1.8-6.5 0-12.4.4-13.1.8zM1162.2 428.8c-.9.6-10.1 41.6-10.2 45.5 0 .5 1.5.7 3.2.5l3.3-.3 1.9-9.5c1-5.2 2-9.6 2.1-9.8.2-.2 4-.4 8.5-.4 7.4 0 8.2-.2 9-2.2.4-1.1.6-2.4.3-2.9-.2-.4-4-.7-8.5-.7h-8l.6-3.3c.4-1.7.9-5.1 1.3-7.5l.6-4.2h8.8c7.8 0 9-.2 9.9-2 .6-1.1.8-2.5.5-3-.7-1.2-21.4-1.3-23.3-.2zM1194.4 429.1c-.4.7-1.8 6.4-3 12.8-4.4 21.3-6.4 31.6-6.4 32.4 0 .5 1.4.7 3.2.5l3.2-.3 4.2-21c5.2-25.2 5.2-25.5 2-25.5-1.4 0-2.8.5-3.2 1.1zM1206 430c-1.7 3.2-.4 4 6.6 4 3.5 0 6.4.4 6.4.8 0 .9-6.5 33.7-7.5 37.9-.5 2-.2 2.3 2.8 2.3h3.3l3.8-18.8c2-10.3 3.9-19.5 4.2-20.5.4-1.4 1.7-1.7 7.4-1.7 5.3 0 6.9-.4 7.4-1.6 1.7-4.3 1.4-4.4-16.4-4.4-16 0-17 .1-18 2zM1266.3 428.8c-.6.4-3.1 10.8-5.6 23.2l-4.4 22.5 2.9.3c1.7.2 3.2.2 3.4-.1.2-.2 1.1-4.2 2-8.8.8-4.7 1.9-9.1 2.4-9.8.5-.9 3.3-1.4 8.4-1.5 5.6-.1 8-.6 8.6-1.6 1.8-2.8.3-3.5-7.8-3.8-4.5-.2-8.2-.5-8.2-.8s.7-3.6 1.6-7.5l1.6-6.9h8.3c8.6 0 11.4-1.2 10.1-4.5-.4-1.2-2.6-1.5-11.3-1.5-5.9 0-11.3.4-12 .8zM1299 430.2c-.9 2.1-9 41.7-9 43.9 0 .5 1.3.9 3 .9 3.2 0 3.6-.8 6-13.7 1-5.1 1.6-6.2 3.5-6.5 2.9-.6 8 1.5 8.8 3.4.3.8 1.1 4.9 1.8 9.1l1.3 7.7h6.9l-.6-4.3c-1.2-8.2-2.9-14.7-4.3-16.1-1.9-1.9-1.9-1.9 1.9-3.9 4.4-2.4 6.7-6.5 6.7-11.9 0-8.2-4.3-10.8-17.8-10.8-6.6 0-7.3.2-8.2 2.2zm17.1 4.8c2.1 1.2 2.6 5.9.9 9.1-1.6 2.8-6.3 4.9-11.3 4.9h-4.3l1.4-7.5 1.5-7.5h4.9c2.7 0 5.8.5 6.9 1zM1346.5 429.9c-4.9 2.2-10 7.8-12.7 14-2.9 6.6-3.6 19.6-1.3 24.4 3.2 6.8 13.9 9.6 23.6 6.2 8.4-3 14.6-11.5 16.9-23.2 2.1-10.8-.3-18.3-7-21.8-4.1-2.1-14.5-1.9-19.5.4zm14.9 4.2c11 5.1 3.7 32.5-9.4 35.4-8.6 1.9-14-2.4-14-11 0-17 12-29.5 23.4-24.4zM1388.1 429.4c-.7.8-3.1 11.2-5.5 23.2l-4.3 21.9 2.4.3c1.4.2 2.9 0 3.3-.5.5-.4 2.5-9.1 4.5-19.3 2-10.1 3.8-18.6 4-18.8.4-.4 1.6 5.4 4.5 21.3 3 16.5 3.2 16.9 6.3 17.3 2.9.4 2.9.5 16.8-22.6 11.5-18.9 11.2-19 7.3.4-1.9 9.3-3.7 18.2-4 19.7-.6 2.7-.4 2.8 2.7 2.5l3.3-.3 4.4-21.8c2.4-12.1 4.1-22.5 3.8-23.3-.6-1.6-5.8-1.9-8.6-.4-1 .5-6.6 8.8-12.6 18.4-5.9 9.7-11 17.4-11.1 17.2-.2-.2-1.9-7.9-3.8-17-1.8-9.2-3.9-17.4-4.6-18.2-1.5-1.8-7.3-1.8-8.8 0zM1475.5 430c-8.5 3.8-14.2 13.3-15.2 25.1-1 12.2 1.6 17.7 9.4 19.8 15.7 4.4 28.9-5.4 32.3-23.9 2-11-.3-18-7-21.5-4-2.1-14.5-1.8-19.5.5zm17.7 5.9c5.2 6.5 1.8 23.7-6.1 30.4-5.7 4.8-14.3 4.8-18.2-.1-1.8-2.3-2.1-3.6-1.7-9.9.6-9.6 4.6-17.8 10.3-21.1 5.2-3 12.9-2.6 15.7.7zM1516.7 428.7c-.3.5-1.9 7.8-3.7 16.3-3.4 16.7-3.5 22.7-.4 26.2 5.5 6.1 17.4 6.4 25.7.6 4.2-3 6.5-8.5 9.7-24 4.1-20.2 4.1-19.3.5-19.3h-3l-2.7 13c-4 19.5-4.7 21.8-7.6 24.8-4.5 4.7-13.2 5.7-16.5 1.8-2.6-2.9-2.5-5.7.8-22.2 1.7-9 3-16.7 2.8-17.2-.2-.4-1.5-.7-2.8-.7s-2.6.3-2.8.7zM1563.6 428.8c-.5.9-9.6 44.1-9.6 45.8 0 .3 1.5.4 3.3.2l3.2-.3 2-9.7c2-10.3 2.4-10.7 7.8-10 3.8.6 5.6 3.7 7 12.4 1.2 7.2 1.3 7.3 4.5 7.6 2.9.3 3.2.1 3.2-2.5-.1-4.5-2.6-15.1-4.2-17.5-1.4-2.1-1.3-2.3 1.6-3.8 4.5-2.2 8.2-10 7-14.8-1.5-5.8-4.9-7.5-15.8-8-5.7-.3-9.6 0-10 .6zm17.5 7.3c2.7 2.7 1.9 6.4-2.2 10.1-2.4 2.3-3.9 2.8-7.9 2.8-3.9 0-5-.4-5-1.6 0-1.4 1.6-9 2.6-12.2.2-.7 2.2-1.2 5.4-1.2 3.7 0 5.5.5 7.1 2.1zM1621.2 429.2c-.9 1.2-9.2 40.9-9.2 44.2 0 1.4 1.8 1.6 13 1.6h13v-2.5c0-2.5 0-2.5-9.6-2.5-9.5 0-9.6 0-9.1-2.3.3-1.2 1.1-5 1.8-8.4l1.1-6.2 8.7-.3c8-.3 8.6-.5 8.9-2.5.3-2.1 0-2.2-8-2.5l-8.4-.3 1.4-6.7 1.5-6.7 9.6-.3 9.6-.3.3-2.8.3-2.7h-11.9c-8.4 0-12.3.4-13 1.2zM1653.5 429.2c-.3.7 1.3 6 3.5 11.7l4 10.4-2.2 2.7c-7.8 9.5-15.8 19.9-15.8 20.4 0 .3 1.6.6 3.5.6 3.2 0 4-.7 10.7-9.6l7.2-9.6 3.6 9.4c3.4 8.9 3.7 9.3 6.8 9.6 4.1.4 4.1-.3-.2-10.9-1.8-4.6-3.6-9.4-4-10.6-.6-1.8.8-4.2 7.3-12.3 4.5-5.5 8.1-10.7 8.1-11.5 0-1-1-1.5-2.7-1.5-2.9 0-4.3 1.5-12.8 12.7-2.1 2.9-4 5.1-4.2 4.9s-1.8-4.1-3.6-8.7c-2.9-7.4-3.6-8.4-6-8.7-1.6-.2-2.9.2-3.2 1zM1695.1 428.9c-1 .7-10.1 41.2-10.1 45.4 0 .4 1.5.7 3.2.5 3.2-.3 3.3-.4 4.8-8.3l1.6-8 6.5-.7c10.8-1 16.4-5.2 18.9-14.3 1.2-4.4 1.2-5.1-.6-8.4-2.7-5-7.3-7.1-15.9-7.1-3.8 0-7.6.4-8.4.9zm16.9 7.1c2.4 2.4 2.5 3.8.4 9-2 4.9-5.6 7-12 7-4.3 0-4.6-.2-4.1-2.3.3-1.2 1.1-5.2 1.8-9l1.2-6.7h5.4c4 0 5.8.5 7.3 2zM1733.1 428.9c-1 .6-3 8.7-5.7 22.3-2.4 11.7-4.3 21.9-4.4 22.5 0 1 3.2 1.3 12.9 1.3 10.9 0 13-.3 13.5-1.6 1.1-2.9-.4-3.4-10-3.4-9.3 0-9.4 0-8.9-2.3.3-1.2 1.1-4.9 1.8-8.2l1.4-6 8.4-.5c7.8-.5 8.4-.7 8.7-2.8s.1-2.2-7.7-2.2c-9.1 0-8.7.4-7-8.3l1.2-5.7h9.3c8.3 0 9.4-.2 10.4-2 .6-1.1.8-2.5.5-3-.8-1.3-22.5-1.3-24.4-.1zM1767.7 428.6c-.3.5-2.4 10.1-4.6 21.4-2.3 11.3-4.5 21.5-4.8 22.7-.5 2.1-.1 2.3 3 2.3h3.5l1.8-9.8 1.9-9.7 3.8-.3c4.5-.4 7.3 1.6 8.1 5.7 2.9 15 2.5 14.1 5.7 14.1 2.6 0 2.9-.3 2.9-3.3 0-4.4-2.8-15.7-4.3-17.5-1-1.2-.9-1.6.3-2 3.2-1.1 7.9-6.9 8.6-10.7.9-4.8-.3-8.2-3.9-10.9-2.2-1.6-4.6-2.1-12.1-2.4-5.1-.2-9.6 0-9.9.4zm17.9 7.9c1.3 2 1.4 3 .4 6-1.4 4.4-5.2 6.5-11.6 6.5-4.3 0-4.6-.2-4.1-2.3.3-1.2.9-4 1.2-6.2 1.1-6.5 1-6.5 6.9-6.5 4.8 0 5.8.3 7.2 2.5zM1808.3 429.2c-.9 1.2-9.3 41.5-9.3 44.5 0 .8 1.3 1.3 3 1.3 2.2 0 3.1-.5 3.5-2.3 1.3-5.5 8.5-42.2 8.5-43.4 0-1.7-4.4-1.7-5.7-.1zM1826.4 428.8c-1.1.7-9.4 39.5-9.4 44 0 2.2.1 2.3 12.8 2 12.3-.3 12.7-.4 13-2.6s.1-2.2-9.3-2.2h-9.7l.7-4.3c.4-2.3 1.1-6.1 1.7-8.5l1-4.2h8.3c8.3 0 9.5-.5 9.5-4.1 0-.5-3.9-.9-8.6-.9-7.6 0-8.5-.2-8-1.8.2-.9.7-3.3 1.1-5.2 1.4-7.3.9-7 10-7 10 0 11.5-.5 11.5-3.6 0-2.4 0-2.4-11.7-2.4-6.5 0-12.3.4-12.9.8zM1861.3 429.2c-.8 1.2-9.3 41.7-9.3 44.6 0 .7 1.3 1.2 3 1.2s3-.1 3-.3c0-.4 7.1-36.2 7.3-37.1.2-.5 2.5 5.3 5.1 13 9 26 8.2 24.4 12.6 24.4 2.8 0 4-.5 4.4-1.8.9-3.2 8.6-42.2 8.6-43.7 0-1.7-4.5-2.1-5.5-.6-.5.8-4.8 21.8-7 33.6-.7 3.9-.9 3.3-7.1-14.5-3.6-10.1-7-18.8-7.7-19.2-1.9-1.2-6.4-.9-7.4.4zM1915.5 429.9c-8.8 4-14.5 13.9-15.2 26.5-.5 9 1 13.3 5.8 16.8 3.7 2.7 12.3 3.2 18.4 1.1 4.5-1.6 5-2.1 5.3-5.1.4-3.6 0-3.8-3.2-1.7-3 2-10.5 2.9-13.8 1.6-6.6-2.5-7.7-15-2.2-25.2 5.1-9.3 13.6-12.5 21.2-7.9 3.8 2.3 5.2 1.9 5.2-1.6 0-5.8-12.8-8.5-21.5-4.5zM1946.1 429.4c-.6.8-1.6 3.8-2.1 6.7-.5 3-2.2 12-3.9 20-1.7 8.1-3.1 15.6-3.1 16.8 0 2.1.3 2.2 12.8 1.9 12.3-.3 12.7-.4 13-2.6.3-2.1.1-2.2-9.2-2.2-5.3 0-9.6-.3-9.6-.7s.8-4.3 1.7-8.5l1.6-7.8h8.3c8.2 0 9.4-.5 9.4-4.1 0-.5-3.8-.9-8.5-.9-6.3 0-8.3-.3-8-1.3.2-.6.9-3.8 1.5-6.9l1.1-5.7 9.7-.3 9.7-.3.3-2.8.3-2.7h-11.9c-9 0-12.2.3-13.1 1.4z"/><linearGradient id="SVGID_1_" gradientUnits="userSpaceOnUse" x1="63.9816" y1="444.6182" x2="133.5251" y2="444.6182" gradientTransform="matrix(1 0 0 -1 0 504)"><stop offset="0" stop-color="#FFF"/><stop offset=".0652" stop-color="#FEF2E9"/><stop offset=".2006" stop-color="#FBD2B2"/><stop offset=".393" stop-color="#F79E59"/><stop offset=".5" stop-color="#F47F25"/></linearGradient><path class="st1" d="M93.1 24.2c-18.2 3.1-31.7 22.1-28.7 40.5 1.3 8.1 3.6 13 9.1 19.1 16.7 18.5 44.8 14.4 56.2-8.1 10.5-20.8-1.6-46.2-24.3-51-3.7-.8-6.9-1.4-7.2-1.4-.3.1-2.6.5-5.1.9z"/></svg>